<svg id="info-icon" xmlns="http://www.w3.org/2000/svg" width="25" height="25" viewBox="0 0 25 25">
  <path id="Path_854" data-name="Path 854" d="M12.5,0A12.5,12.5,0,1,0,25,12.5,12.5,12.5,0,0,0,12.5,0Zm2.6,19.372q-.965.381-1.54.58a4.062,4.062,0,0,1-1.335.2,2.662,2.662,0,0,1-1.817-.57,1.841,1.841,0,0,1-.647-1.447,5.254,5.254,0,0,1,.048-.7c.033-.237.085-.5.156-.8l.805-2.844c.071-.273.132-.532.181-.774a3.43,3.43,0,0,0,.072-.67,1.032,1.032,0,0,0-.224-.759,1.274,1.274,0,0,0-.86-.213,2.258,2.258,0,0,0-.64.1c-.217.067-.405.127-.56.186l.213-.876q.79-.322,1.513-.551A4.471,4.471,0,0,1,11.831,10a2.612,2.612,0,0,1,1.79.561,1.863,1.863,0,0,1,.629,1.456q0,.186-.043.653a4.369,4.369,0,0,1-.161.858l-.8,2.836c-.066.228-.124.488-.177.779a4.118,4.118,0,0,0-.077.662.951.951,0,0,0,.253.77,1.416,1.416,0,0,0,.875.205,2.538,2.538,0,0,0,.662-.1,3.766,3.766,0,0,0,.535-.18ZM14.96,7.861a1.912,1.912,0,0,1-1.349.521,1.932,1.932,0,0,1-1.354-.521A1.662,1.662,0,0,1,11.692,6.6a1.679,1.679,0,0,1,.564-1.266,1.918,1.918,0,0,1,1.354-.526,1.9,1.9,0,0,1,1.349.526,1.7,1.7,0,0,1,0,2.528Z" fill="#f57120"/>
</svg>
