<svg xmlns="http://www.w3.org/2000/svg" width="34.606" height="35.263" viewBox="0 0 34.606 35.263">
  <g id="fb-icon-white" transform="translate(193.552 -236.516)">
    <g id="Group_180" data-name="Group 180">
      <path id="Path_213" data-name="Path 213" d="M-174.554,271.357c.168-.082.807-.113,1.023-.222C-174.576,271.213-174.576,271.172-174.554,271.357Z" fill="#fff" fill-rule="evenodd"/>
      <path id="Path_214" data-name="Path 214" d="M-193.154,253.074a4.473,4.473,0,0,0-.01,1.531C-193.214,254.155-193.079,253.487-193.154,253.074Z" fill="#fff" fill-rule="evenodd"/>
      <path id="Path_215" data-name="Path 215" d="M-176.5,271.339a.337.337,0,0,0,.187.039l.269-.017-.2-.039C-176.386,271.307-176.5,271.306-176.5,271.339Z" fill="#fff" fill-rule="evenodd"/>
      <path id="Path_216" data-name="Path 216" d="M-175.462,271.336l-.1.039.209.026c0-.016.1-.031.057-.044A1.215,1.215,0,0,0-175.462,271.336Z" fill="#fff" fill-rule="evenodd"/>
      <path id="Path_217" data-name="Path 217" d="M-173.78,236.808l1.829.4.7.21a11.37,11.37,0,0,1,1.467.533l-.033-.031.7.316c.22.072.481.25.7.331.38.218.776.407,1.107.631a2.036,2.036,0,0,0,.453.265l.885.605c.117.052.3.225.4.269a2.52,2.52,0,0,0,.225.13,2.506,2.506,0,0,0-.559-.488l-1.047-.716a3.223,3.223,0,0,0-.911-.525l-.687-.366a9.884,9.884,0,0,0-1.189-.52l-.443-.189a2.825,2.825,0,0,0-.752-.258l-.28-.09a1.008,1.008,0,0,0-.24-.073l-.222-.06a11.61,11.61,0,0,0-2.1-.514c-.187-.026-.295-.02-.3.019S-173.964,236.775-173.78,236.808Zm6.577,2.417.015.01a1.083,1.083,0,0,1,.228.15l-.228-.15-.018-.007Z" fill="#fff" fill-rule="evenodd"/>
      <path id="Path_218" data-name="Path 218" d="M-161.411,264.338l-.008.012c-.01.013-.015.03-.025.043Z" fill="#fff" fill-rule="evenodd"/>
      <path id="Path_219" data-name="Path 219" d="M-159.057,257v-.03a5.919,5.919,0,0,0,.106-1.393.958.958,0,0,0-.041.113A1.508,1.508,0,0,0-159,255.4l-.014-.063.008-.083c0-.376.009-.753.013-1.152l-.043-.227a19.323,19.323,0,0,0-.583-3.263l-.09-.235c-.269-.91-.564-1.739-.931-2.652l-.13-.189-.1-.247a1.089,1.089,0,0,0-.208-.443,7.226,7.226,0,0,0-.922-1.565,26.608,26.608,0,0,0-1.721-2.086c-.3-.322-.48-.657-.791-.95-.3-.269-.355-.164-.788-.521-.465-.352-.915-.752-1.419-1.116l-.03.04c-.006-.025-.027-.063.03-.04l-.2-.134-.029.039-.606-.421-.225-.09-.072-.034-.045-.041c-.172-.135-.423-.221-.515-.336.117,0,.494.222.528.167a2.871,2.871,0,0,0-1.429-.583c-.135-.079-.332-.178-.317-.208.112-.093-.194-.2-.592-.331-.323-.1-.419-.077-.409,0l-.217-.09a.832.832,0,0,0-.238-.1l.031.027c-.077-.038-.156-.072-.236-.1-.278-.1-.722-.209-.574-.282.12-.049-.063-.131-.388-.232a2.213,2.213,0,0,0-.823-.165c.325.1.7.291.582.358-.14-.025-.3-.067-.466-.106a1.541,1.541,0,0,0-.317-.263c-.035-.046-.072-.085-.231-.126a.5.5,0,0,0-.269-.322c.154.011.321.026.487.043a5.238,5.238,0,0,1,1.435.453,3.22,3.22,0,0,0,.948.3l1.323.561a30.722,30.722,0,0,1,3.113,1.685l-.02-.008c.56.347,1.047.857,1.591,1.264a4.613,4.613,0,0,1,.7.635l.253.242a7.231,7.231,0,0,1,.518.539c.52.641,1.017,1.2,1.453,1.806l-.039-.094.021.033.018.061a3.623,3.623,0,0,0,.433.59l.073.1.061.107a8.38,8.38,0,0,0,.62,1.111,1.916,1.916,0,0,1,.116.2c.118.269.244.529.358.73.024.06.027.058.039.054.019.015.019-.007.006-.072a6.15,6.15,0,0,0-.882-1.973c-.113-.179-.269-.427-.394-.622a10.81,10.81,0,0,0-2.826-3.282,1.762,1.762,0,0,0-.384-.321,1.841,1.841,0,0,0-.4-.278l-.37-.3-.6-.512a11.609,11.609,0,0,0-2.906-1.78c-.466-.219-.981-.375-1.473-.634-.364-.2-.845-.4-.687-.157.024.052-.291-.04-.487-.1-.373-.1-.8-.258-1.2-.341a.545.545,0,0,1-.159-.039.728.728,0,0,0-.28-.059.527.527,0,0,1-.18-.038,10.838,10.838,0,0,0-1.06-.286,2.579,2.579,0,0,0-.46-.1c-.023-.044-.087-.08-.277-.1a1.869,1.869,0,0,0-.258-.039l-.063.01h-.022l.085-.012c-.043-.039-.129-.061-.345-.062l-.021-.007v0c-.022-.028-.108-.036-.26-.038a.469.469,0,0,1-.171.008c-.4.031-.8.088-1.2.158a3.579,3.579,0,0,0-.686.02,18.26,18.26,0,0,0-2.849.409v.017l0-.016a7.39,7.39,0,0,0-1.443.342,2.44,2.44,0,0,0-.721.19,2.92,2.92,0,0,0-.557.165c-.253.093-.151.123-.3.2a.782.782,0,0,0-.244.162c-.067.052-.385.2-.3.225.036.028.106.033.269-.006.067.048.258.024.533-.052l.051-.032v.005a.177.177,0,0,0-.053.027l.578.1c.024.067.1.106.354.054-.134.084-.269.17-.393.262a3.706,3.706,0,0,0-1.063.653,10.683,10.683,0,0,0-1.475,1.128l.032-.025c-.232.248-.616.475-.779.706v0a4.526,4.526,0,0,0-.388.383l-.035.054-.068.053-.68.665a3.853,3.853,0,0,0-.832.835c-.311.421-.914,1.083-1.253,1.615a8.964,8.964,0,0,0-1.059,1.706l.028-.024c-.014.033-.018.03-.018.03l-.01-.006a16.163,16.163,0,0,0-.941,1.9,6.349,6.349,0,0,0-.471,1.288c-.036.112-.072.225-.1.336a11.469,11.469,0,0,0-.645,2.752,4.236,4.236,0,0,0-.029,1.353.225.225,0,0,1-.01.147,1.425,1.425,0,0,0-.053.445,5.033,5.033,0,0,0,.033,1.392l.013.016h0s-.009,0-.013-.016a2.1,2.1,0,0,0,.041.745h0a5.693,5.693,0,0,0,.076.725.34.34,0,0,1,.021.148,1.271,1.271,0,0,0,.045.471,2.1,2.1,0,0,0,.246.825h0a2.181,2.181,0,0,0,.2.6c.08.261.154.5.227.745a10.112,10.112,0,0,0,.471,1.211l.179.447a2.833,2.833,0,0,0,.349.714c.049.093.1.187.135.261a1.021,1.021,0,0,0,.118.221l.115.2a11.512,11.512,0,0,0,1.118,1.844c.114.151.195.222.226.2s-.021-.138-.129-.292c-.324-.509-.691-1.085-1.009-1.58l-.344-.641a11.477,11.477,0,0,1-.661-1.412v.045l-.274-.722c-.1-.2-.162-.517-.258-.726-.031-.114-.067-.228-.1-.34.01.02.02.04.032.059h0l.074.13-.03-.138h0a1.364,1.364,0,0,0-.015-.2,1.583,1.583,0,0,0-.078-.458h-.013l.014-.005a.774.774,0,0,0-.012-.152,14.362,14.362,0,0,0,.5,1.567c.174.485.429.959.593,1.49.112.4.316.878.375.6.021-.055.178.232.273.415.188.336.382.748.606,1.091a.572.572,0,0,1,.086.14.7.7,0,0,0,.156.238.55.55,0,0,1,.1.156,7.63,7.63,0,0,0,2.036,2.623,3.355,3.355,0,0,1,.355.37,2.881,2.881,0,0,0,.646.667,18.008,18.008,0,0,0,2.3,1.725l0-.007,0-.007-.009.014a7.307,7.307,0,0,0,1.261.779,2.493,2.493,0,0,0,.644.376,3,3,0,0,0,.511.276c.244.114.2.02.35.074a.818.818,0,0,0,.289.058c.084.009.411.134.374.055-.006-.045-.052-.1-.193-.184-.014-.081-.165-.2-.413-.339l-.06-.014v0a.171.171,0,0,0,.058.018l-.336-.479c.034-.075-.008-.178-.349-.372-.032-.067-.1-.148-.135-.224.248.115.52.225.759.308.258.089.408.08.427.032.063-.054-.226-.159-.4-.247-.207-.1-.365-.217-.376-.279-.024-.082.273.044.424.077a16.841,16.841,0,0,0,1.771.545,3.036,3.036,0,0,0,.863.193l-.017-.012.019,0v.008a6.037,6.037,0,0,0,1.163.2.486.486,0,0,1-.088-.038l.018,0,.068.034a4.375,4.375,0,0,0,1.118.1l-.036-.013.037.005v.008a7.6,7.6,0,0,0,1.864.068c.518-.079,1.413-.121,2.027-.256a8.946,8.946,0,0,0,1.956-.458h-.037c.033-.014.033-.011.033-.011l0,.012a15.655,15.655,0,0,0,3.561-1.421,11.871,11.871,0,0,0,2.13-1.283h0c.027.028.1.014.23-.085l.068-.081h0l-.067.078a.612.612,0,0,0,.231-.048,3.58,3.58,0,0,1-.52.387l.016-.012c-.183.1-.434.3-.61.369-.4.135-.818.524-1.26.728l-.368.18c-.249.082-.557.3-.826.377l-.344.141a6.218,6.218,0,0,1-1.364.519l-.067.03-.053.013c-1.4.341-2.418.711-3.5.962a17.668,17.668,0,0,0,5.876-1.72l.4-.2a3.617,3.617,0,0,0,1.047-.554l.56-.351c.187-.094.411-.265.592-.372a1.264,1.264,0,0,1,.169-.121,2.881,2.881,0,0,0,.584-.421l.183-.14c.079-.051.184-.105.244-.153l.259-.253a.774.774,0,0,0,.246-.19l.021-.011h0c.034,0,.1-.051.211-.157a.445.445,0,0,1,.114-.127,16.876,16.876,0,0,0,1.518-2.157,7.034,7.034,0,0,0,.463-.815,2.324,2.324,0,0,0,.317-.543c.056-.078.113-.153.175-.224a14.108,14.108,0,0,0,.874-2.758,3.716,3.716,0,0,0,.289-1.215,10.569,10.569,0,0,0,.246-1.84Zm-3.3-12.939-.01.008s.006,0,0-.023Zm-21.465-6c0-.011-.03-.019.026-.048.016-.015.057-.023.073-.036-.051.04-.106.071-.1.084Zm2.132,33.338c0,.011.009.035-.052.015-.022,0-.056-.024-.078-.027.062.008.124.025.129.012Zm21.567-17.5h-.008v-.038Zm-.107,2.326a4.722,4.722,0,0,0-.006-1.076,3.956,3.956,0,0,1,0,1.076Zm.029-7.023c-.018-.016-.055-.112-.076-.124l-.033-.141Zm-.141,2.138h.008c0,.021-.012.082-.027.046a.194.194,0,0,0,.016-.048Zm-.332,3.508h0l0,.021Zm-.389-1.323a.782.782,0,0,1,.019.166c-.01.148-.037-.015-.06-.09.016,0,.035,0,.039-.076Zm-.231,2.611h.012l-.008.037c-.008.017-.006-.037-.006-.037Zm-3.534,9.12.086-.157a6.555,6.555,0,0,1,.581-1.216,6.062,6.062,0,0,1-.581,1.216.316.316,0,0,0-.013.068Zm-21.76-.256a.748.748,0,0,0-.063-.048h0l-.01-.012-.04-.039h0a.241.241,0,0,1,.038.04l.015.009.032.021a.19.19,0,0,0,.029.028Zm-2.976-.883-.022-.027c.031.02.045.01.036-.028l-.009-.015.013.014c-.157-.3-.293-.7-.157-.666a9.051,9.051,0,0,0,.524.788l.288.423c.156.377.184.451.106.564-.094-.166-.233-.33-.379-.533a2.469,2.469,0,0,0-.386-.574c.006.036,0,.043-.016.056Zm.471-5.508.015,0v.036Zm-.224,1.014a.114.114,0,0,0-.067-.036.484.484,0,0,1-.085.232c.019-.1.015-.244.085-.232a1.024,1.024,0,0,0,.021-.207c.027.1.007.143.042.242Zm-.543,2.989-.018-.033a1.644,1.644,0,0,0,.177.259l-.012.006Zm-.272-1.6-.067-.115-.031-.09Zm-.53-2.2c-.014,0-.038-.03-.063-.081l-.008-.037c.024.053.055.122.074.118Zm-1.54-1.408a.3.3,0,0,1-.026-.067h0a.177.177,0,0,0,.026.067Zm.442,1.624c-.032.01-.014.115.024.255a.807.807,0,0,1-.09-.269c.008-.06.043-.015.07.014Zm.812-.945a1.023,1.023,0,0,1-.113-.345,2.791,2.791,0,0,0,.115.345Zm.123.9c-.011-.115-.024-.208.016-.217-.028.006-.024.1-.013.216Zm-1.6-5.325v.035h-.008v-.035Zm-.1.69v.017l0,.018-.031.25,0,.072v-.037l0-.035a1.4,1.4,0,0,1,.031-.25Zm-.284,2.7a.046.046,0,0,0,.042-.021l.015.146a.641.641,0,0,0-.057-.125c-.045-.006-.094-.082-.141-.16a.454.454,0,0,1,.143.159Zm2.2,4.616.089.219a.847.847,0,0,0,.1.235l0-.041a2.222,2.222,0,0,0,.1.238c.127.269.362.66.205.606-.043-.018-.06,0-.058.035l-.134-.269h0c0-.128-.178-.354-.262-.553a2.189,2.189,0,0,0-.156-.5c.058.062.1.066.127.029Zm4.323-19.024.006-.006h0Zm11.5-3.545,0,.022c0,.019-.092,0-.094.017C-174.888,239.114-174.8,239.114-174.791,239.093Zm-1.124-.153c-.037,0,0,0-.018,0h-.091l.037-.005a1.785,1.785,0,0,1,.31-.015c-.056.017-.2.006-.241.025Zm.238.168h-.072l-.037.008h-.039a.621.621,0,0,0,.077-.01v0h.016Zm12.1,21.748a.228.228,0,0,1,.051-.091l.009,0c-.02.032-.068.142-.063.087Zm.039.118-.015.027.005-.033-.016.018v-.011s.013-.007.021-.019l-.006.012Zm1.742-4.966-.019.14a.2.2,0,0,0-.016-.09c.011-.051.022-.032.031-.049Zm-.332-8.536.01.02-.009-.017v0l-.022-.048c-.009-.039-.012-.057-.012-.057a.4.4,0,0,0,.03.106Zm-.075-1.666.008.013-.008-.013h0l-.011-.017Zm-.235-.211-.007.005-.011-.017c.011.016.014.014.014.014Zm-5.093-4.5a2.59,2.59,0,0,0-.324-.164,1.044,1.044,0,0,1,.321.166Zm-1.018-.481a.259.259,0,0,1,.078.017l.033.022a.434.434,0,0,0-.114-.037Zm.109-.067c.018-.028-.053-.092-.142-.165.086.072.16.128.139.164Zm-1.934-1.073.086.042-.214-.075Zm-1.717-1.038.269.06.036.012a1.46,1.46,0,0,0-.307-.058Zm-3.221-1.782c-.016,0-.027.01-.055.016v-.006Zm-2.882.1.039,0-.163.008Zm-11.6,8.384v.067h0a.113.113,0,0,1,0-.068Zm-.024.1v.005c-.021.009-.044.022-.067.032a.367.367,0,0,1,.064-.039Zm-3.193,10.426c-.008.024-.014.048-.032.028l0-.037c.015.039.025.026.031.008Zm.4,3.162v.005h0Zm1.774,3.467-.135-.336c.019.026.037.054.057.079a1.544,1.544,0,0,0,.124.325c-.02-.026-.035-.05-.05-.072Zm1.155,2.216a5.177,5.177,0,0,1-.694-1.336c-.018-.054-.041-.112-.064-.168a1.6,1.6,0,0,1,.129.241,2.589,2.589,0,0,0,.265.463.978.978,0,0,0,.081.077,10.166,10.166,0,0,0,1.144,1.439l-.033.039c-.135.094-.494-.346-.832-.76Zm1.009-3.273c.091,0,.114-.127.073-.349h0l.078.393c.057.236-.074.049-.155-.049Zm.2,3.044c.019.01-.024-.076.029-.02s.011.039.035.091Zm1.137.01.018-.012c.016-.012.068.061.078.053-.02.007-.084-.057-.1-.045Zm.5.752c.05.029.145.138.186.151.023.029,0,0,.009.016l.067.067-.029-.024a1.61,1.61,0,0,1-.238-.214Zm.247,3.312-.026-.03.121.109Zm.677-.291c0-.005-.006-.014,0-.018-.115-.128-.183-.236-.292-.36l-.035-.022s.02.009,0,0l.03.026c.269.216.307.3.293.36a.73.73,0,0,0,.061.072Zm1.214-2.036.135.051c-.025,0,.007.044.012.068a1.638,1.638,0,0,1-.152-.123Zm.882,1.985,0-.006.012.015c-.02-.014-.021-.013-.021-.013Zm1.81.14a.764.764,0,0,0,.154.042c-.057-.018-.069,0-.159-.046Zm.885.47c.016.008.017.006.017.006h0l-.016-.008c-.011,0-.018,0-.03,0a.585.585,0,0,1-.372-.056.888.888,0,0,1-.228-.092c-.01-.006-.015,0-.025-.009l-.111-.051.135.06c.077.033.154.067.228.092.128.033.235.027.372.056h.016s0-.006,0-.006l-.142-.16-.023-.015.015.007a.358.358,0,0,0-.039-.039,3.708,3.708,0,0,1-.458-.342l0,.007-.377-.235.337.2.045.026a1.522,1.522,0,0,1,.458.342c.027.017.043.035.071.052l-.032-.014.008.008c.116.075.229.146.142.159Zm.439.074-.189-.081a2.262,2.262,0,0,0,.224.088Zm.974,1.267v-.006h0Zm.927-.44c.021-.009-.045-.029-.041-.042a.3.3,0,0,0,.092.058Zm1.284.3v-.006l.034.014Zm.843.121a2.421,2.421,0,0,0-.28-.126l.328.019c.061.03.107.066-.054.1Zm1.337-1.062a.492.492,0,0,0,.13.036.09.09,0,0,0,.047.017v0a.133.133,0,0,1-.047-.021l-.16-.033c.024-.005.024-.009.024-.009Zm.172.258h.016a.432.432,0,0,1-.116.035.651.651,0,0,0,.094-.041Zm2.752,1.431-.009.009a.129.129,0,0,1-.055.051l.055-.051a.051.051,0,0,0,.006-.03c0,.023.059.035.1.049a.784.784,0,0,0-.1-.035Zm1.441-1.682c-.067.021-.152.058-.162.024-.03.009,0-.012-.051,0l.006-.007.039-.015.006.024.1-.011.06-.013.035-.011v.005Zm3.334-1.529c-.225.108-.424.189-.5.148-.11-.033.118-.162.308-.285.081-.055.186-.135.124-.144-.135.029-.315.166-.413.155.166-.131.384-.2.56-.345-.042.01-.067.014-.082.006l-.021.007.013-.009h.008c.038-.012.073-.021.082-.006a.342.342,0,0,1,.109-.067c.231-.088.471-.31.713-.413a3.526,3.526,0,0,0,.874-.686l.015-.009.024-.022-.013.011c.2-.283-.067-.053-.233.072l-.074.06-.043.025c-.134.035-.369.253-.506.282a15.181,15.181,0,0,0,1.661-1.453c.034-.035.072-.071.111-.107a.075.075,0,0,0-.01.02c-.035.068.025.021.067-.037a.827.827,0,0,0,.068-.088l-.01-.006a.524.524,0,0,0,.174-.257.744.744,0,0,1,.129-.295c.134-.067.329-.258.416-.238-.078.125-.111.194-.1.243a6.186,6.186,0,0,0-.515.865,4.8,4.8,0,0,1-.453.77q-.2.232-.383.457c-.033.025-.067.049-.1.072a18.82,18.82,0,0,1-2,1.264Zm.74-.134.072-.042a.318.318,0,0,0,.067-.032.312.312,0,0,1,.087-.04.344.344,0,0,0-.087.04.953.953,0,0,1-.148.06Z" fill="#fff" fill-rule="evenodd"/>
      <path id="Path_220" data-name="Path 220" d="M-188.834,243.13c-.061.178-.491.65-.566.881C-188.717,243.219-188.688,243.247-188.834,243.13Z" fill="#fff" fill-rule="evenodd"/>
      <path id="Path_221" data-name="Path 221" d="M-193.153,252.249a7.07,7.07,0,0,1,.171-.692c.189-.381.207-.948.376-1.405.036-.1.084-.247.135-.388.117-.233.181-.605.318-.851l.144-.342a6.241,6.241,0,0,1,.6-1.332l.027-.068.029-.047c.436-.718.774-1.35,1.1-1.941l.276-.412c.086-.145.154-.277.129-.295,0,0,0-.005-.006-.007.1-.167.194-.336.3-.5a17.442,17.442,0,0,0-2.713,4.758c-.013-.06-.072.054-.117.19-.107.336-.241.673-.323,1a4.354,4.354,0,0,0-.276.983c-.051.22-.1.421-.147.644-.068.2-.1.478-.156.681a1.142,1.142,0,0,1-.035.2,2.917,2.917,0,0,0-.115.713l-.03.228c-.02.091-.057.2-.067.28,0,.286-.006.551-.008.837a.289.289,0,0,0,.012.057c.012.018.021.018.033-.037a.87.87,0,0,0,.055-.229h0c.038-.131.032-.336.059-.507a1.183,1.183,0,0,1,.009-.168,1.577,1.577,0,0,0,.091-.485,1.421,1.421,0,0,1-.052.168l-.021.072v-.018c.007-.016.014-.036.02-.054l.052-.168c.081-.218.059-.637.145-.89Z" fill="#fff" fill-rule="evenodd"/>
      <path id="Path_222" data-name="Path 222" d="M-162.754,242.907a4.452,4.452,0,0,0-1.076-1.089C-163.477,242.1-163.1,242.67-162.754,242.907Z" fill="#fff" fill-rule="evenodd"/>
      <path id="Path_223" data-name="Path 223" d="M-160.873,245.593l.359.679a2.832,2.832,0,0,0,.177.294c.1.115.063-.03-.014-.183a6.448,6.448,0,0,0-.74-1.3l-.117-.178c-.1-.141-.2-.28-.237-.257-.05-.018.042.126.11.235C-161.176,245.129-161.023,245.408-160.873,245.593Z" fill="#fff" fill-rule="evenodd"/>
      <path id="Path_224" data-name="Path 224" d="M-187.444,241.767a.335.335,0,0,0-.159.1l-.177.2.172-.117C-187.505,241.872-187.423,241.791-187.444,241.767Z" fill="#fff" fill-rule="evenodd"/>
      <path id="Path_225" data-name="Path 225" d="M-188.178,242.505l.041-.1-.166.13c.012.012-.046.089-.009.072A1.356,1.356,0,0,0-188.178,242.505Z" fill="#fff" fill-rule="evenodd"/>
      <path id="Path_226" data-name="Path 226" d="M-160.382,262.714c-.039.051-.049-.048-.119.156a.145.145,0,0,0-.006.093,1.58,1.58,0,0,0,.129-.175C-160.341,262.71-160.33,262.644-160.382,262.714Z" fill="#fff" fill-rule="evenodd"/>
      <path id="Path_227" data-name="Path 227" d="M-159,251.321c.053.035,0-.193-.018-.319l-.153-.75c-.062-.134-.1-.127-.094.023l.147.746C-159.08,251.185-159.035,251.326-159,251.321Z" fill="#fff" fill-rule="evenodd"/>
      <path id="Path_228" data-name="Path 228" d="M-166.987,240.4l.074.068-.036-.055Z" fill="#fff" fill-rule="evenodd"/>
    </g>
    <path id="Path_229" data-name="Path 229" d="M-174.5,265.45V255.133h3.46l.519-4.021H-174.5v-2.568c0-1.164.323-1.957,1.993-1.957h2.128v-3.6a28.706,28.706,0,0,0-3.1-.159c-3.069,0-5.171,1.875-5.171,5.315v2.965h-3.471v4.021h3.471v10.317Z" fill="#185f51"/>
  </g>
</svg>
