<svg xmlns="http://www.w3.org/2000/svg" width="34.602" height="35.256" viewBox="0 0 34.602 35.256">
  <g id="instagram-icon-white" transform="translate(152.342 -236.05)">
    <g id="Group_190" data-name="Group 190">
      <g id="Group_184" data-name="Group 184">
        <path id="Path_230" data-name="Path 230" d="M-133.347,270.889c.169-.082.807-.111,1.023-.222C-133.368,270.744-133.369,270.7-133.347,270.889Z" fill="#fff" fill-rule="evenodd"/>
        <path id="Path_231" data-name="Path 231" d="M-151.945,252.607a4.448,4.448,0,0,0-.009,1.531C-152,253.688-151.868,253.02-151.945,252.607Z" fill="#fff" fill-rule="evenodd"/>
        <path id="Path_232" data-name="Path 232" d="M-135.3,270.872a.339.339,0,0,0,.187.037l.27-.016-.2-.039C-135.178,270.839-135.292,270.839-135.3,270.872Z" fill="#fff" fill-rule="evenodd"/>
        <path id="Path_233" data-name="Path 233" d="M-134.253,270.869l-.1.039.209.025c0-.017.1-.031.057-.044A1.2,1.2,0,0,0-134.253,270.869Z" fill="#fff" fill-rule="evenodd"/>
        <path id="Path_234" data-name="Path 234" d="M-132.57,236.343l1.828.4.7.211a11.558,11.558,0,0,1,1.466.532l-.033-.03.7.317c.219.067.48.249.695.33.38.217.777.408,1.107.632a2.162,2.162,0,0,0,.453.264l.885.6c.118.052.305.226.4.269.073.047.148.09.225.13a2.523,2.523,0,0,0-.558-.488l-1.046-.716a3.242,3.242,0,0,0-.912-.525l-.687-.367a10.116,10.116,0,0,0-1.189-.52l-.444-.189a2.819,2.819,0,0,0-.751-.258l-.28-.09a1.013,1.013,0,0,0-.241-.072l-.222-.061a11.621,11.621,0,0,0-2.094-.514c-.187-.027-.295-.02-.3.019S-132.756,236.311-132.57,236.343Zm6.576,2.416.016.011a1.128,1.128,0,0,1,.228.151l-.228-.151-.019-.008Z" fill="#fff" fill-rule="evenodd"/>
        <path id="Path_235" data-name="Path 235" d="M-120.205,263.871l-.008.012c-.009.014-.015.029-.024.042Z" fill="#fff" fill-rule="evenodd"/>
        <g id="Group_183" data-name="Group 183">
          <g id="Group_182" data-name="Group 182">
            <path id="Path_236" data-name="Path 236" d="M-117.85,256.53v-.03a5.862,5.862,0,0,0,.1-1.393,1.144,1.144,0,0,0-.039.112,1.487,1.487,0,0,0-.006-.283l-.014-.063.008-.083c0-.377.008-.754.012-1.152l-.042-.228a19.318,19.318,0,0,0-.584-3.264l-.089-.235c-.269-.908-.564-1.739-.932-2.651l-.13-.189-.1-.247a1.072,1.072,0,0,0-.208-.442,7.249,7.249,0,0,0-.922-1.566,26.408,26.408,0,0,0-1.721-2.085c-.3-.323-.481-.657-.791-.951-.3-.269-.355-.163-.787-.521-.466-.352-.917-.753-1.419-1.115l-.03.04c-.006-.025-.028-.063.03-.04l-.2-.134-.028.039-.6-.42-.226-.092-.072-.033-.045-.04c-.173-.139-.423-.221-.514-.336.115,0,.493.222.527.167a2.848,2.848,0,0,0-1.429-.582c-.135-.078-.331-.178-.317-.208.112-.092-.195-.2-.592-.331-.323-.1-.419-.077-.408,0l-.219-.092a.789.789,0,0,0-.238-.094l.031.026a2.05,2.05,0,0,0-.236-.1c-.277-.1-.721-.21-.572-.282.118-.049-.063-.132-.389-.231a2.157,2.157,0,0,0-.823-.166c.325.1.7.29.582.358-.139-.025-.3-.067-.465-.1a1.583,1.583,0,0,0-.318-.265c-.035-.045-.073-.084-.232-.124a.5.5,0,0,0-.269-.322c.154.01.322.026.487.042a5.213,5.213,0,0,1,1.436.454,3.22,3.22,0,0,0,.947.3l1.324.561a30.693,30.693,0,0,1,3.111,1.685l-.018-.008c.559.347,1.046.858,1.589,1.264a4.561,4.561,0,0,1,.7.635l.255.243a7.409,7.409,0,0,1,.517.538c.521.64,1.018,1.2,1.454,1.806l-.04-.1.021.033.019.063a3.661,3.661,0,0,0,.432.588l.073.1.061.108a8.547,8.547,0,0,0,.62,1.11c.055.09.067.106.117.2.117.265.244.528.356.73.024.059.029.058.04.053.019.016.019-.008.006-.072a6.181,6.181,0,0,0-.882-1.973c-.114-.179-.269-.427-.4-.621a10.785,10.785,0,0,0-2.825-3.283,1.739,1.739,0,0,0-.384-.321,1.836,1.836,0,0,0-.395-.277l-.37-.3-.6-.512a11.593,11.593,0,0,0-2.9-1.779c-.467-.22-.982-.374-1.474-.635-.363-.2-.844-.4-.686-.156.023.053-.29-.039-.487-.1-.374-.106-.8-.259-1.2-.342a.57.57,0,0,1-.158-.038.715.715,0,0,0-.28-.06.536.536,0,0,1-.181-.037,10.768,10.768,0,0,0-1.06-.287,2.577,2.577,0,0,0-.46-.1c-.021-.043-.087-.08-.277-.1a1.869,1.869,0,0,0-.258-.039l-.063.011h-.021l.084-.012c-.043-.039-.129-.061-.343-.063l-.023-.007v.005c-.022-.028-.108-.036-.26-.039a.469.469,0,0,1-.171.01c-.4.03-.8.087-1.2.156a3.669,3.669,0,0,0-.687.02,18.133,18.133,0,0,0-2.848.41v.016l0-.015a7.292,7.292,0,0,0-1.442.342,2.469,2.469,0,0,0-.721.189,2.989,2.989,0,0,0-.556.166c-.254.092-.152.123-.3.2a.808.808,0,0,0-.245.163c-.067.052-.386.194-.3.225.036.029.1.033.269-.006.067.048.256.024.532-.052l.052-.031v0a.207.207,0,0,0-.053.028l.578.1c.025.067.1.105.354.053-.135.085-.269.171-.392.262a3.731,3.731,0,0,0-1.063.654,10.488,10.488,0,0,0-1.475,1.128l.032-.026c-.232.249-.616.475-.779.706v0a4.833,4.833,0,0,0-.388.383l-.035.054-.067.054-.68.664a3.858,3.858,0,0,0-.833.835c-.31.422-.912,1.083-1.253,1.615a9.008,9.008,0,0,0-1.058,1.706l.027-.025c-.013.034-.017.031-.017.031l-.011-.006a16.158,16.158,0,0,0-.942,1.9,6.336,6.336,0,0,0-.471,1.289c-.035.112-.071.224-.1.336a11.409,11.409,0,0,0-.643,2.751,4.23,4.23,0,0,0-.031,1.352.242.242,0,0,1-.008.148,1.4,1.4,0,0,0-.054.446,4.981,4.981,0,0,0,.033,1.39l.014.016h0s-.01,0-.014-.016a2.1,2.1,0,0,0,.041.746h0a5.694,5.694,0,0,0,.077.725.339.339,0,0,1,.02.148,1.291,1.291,0,0,0,.045.471,2.084,2.084,0,0,0,.247.825h0a2.146,2.146,0,0,0,.2.6c.08.261.154.5.227.744a10.045,10.045,0,0,0,.471,1.211l.18.448a2.793,2.793,0,0,0,.349.713l.135.262a.993.993,0,0,0,.12.222l.113.2a11.544,11.544,0,0,0,1.119,1.844c.114.151.194.223.226.2s-.022-.139-.129-.292l-1.009-1.579-.344-.642a11.477,11.477,0,0,1-.661-1.412v.045l-.273-.722c-.106-.2-.164-.515-.259-.726-.031-.114-.067-.228-.1-.34.011.02.02.041.032.06h0l.073.134-.029-.139v0a1.311,1.311,0,0,0-.015-.2,1.617,1.617,0,0,0-.078-.458h-.014l.014,0a.7.7,0,0,0-.011-.152,14.15,14.15,0,0,0,.5,1.567c.175.485.43.959.594,1.491.112.4.315.875.374.6.021-.054.177.234.273.416.189.336.382.747.6,1.09a.523.523,0,0,1,.086.141.743.743,0,0,0,.156.239.529.529,0,0,1,.1.154,7.616,7.616,0,0,0,2.035,2.623,3.287,3.287,0,0,1,.356.371,2.888,2.888,0,0,0,.644.666,18.059,18.059,0,0,0,2.315,1.708l0-.008,0-.007-.009.015a7.431,7.431,0,0,0,1.261.779,2.551,2.551,0,0,0,.644.376,3,3,0,0,0,.511.276c.246.114.2.02.351.073a.8.8,0,0,0,.288.058c.084.01.411.134.374.056-.006-.046-.051-.1-.193-.184-.014-.082-.164-.2-.412-.337l-.059-.014v-.006a.229.229,0,0,0,.058.017c-.109-.153-.231-.325-.337-.479.034-.075-.008-.178-.349-.37-.032-.068-.1-.149-.13-.224.247.115.518.224.758.308.257.087.408.079.427.032.062-.055-.226-.16-.4-.248-.206-.1-.364-.216-.376-.277-.023-.083.274.043.425.076a16.993,16.993,0,0,0,1.77.544,3.036,3.036,0,0,0,.863.193l-.017-.012.019,0v.008a5.962,5.962,0,0,0,1.163.2.484.484,0,0,1-.088-.037l.019,0,.067.033a4.391,4.391,0,0,0,1.12.1l-.037-.012.038,0v.008a7.546,7.546,0,0,0,1.863.067c.518-.078,1.412-.12,2.027-.256a8.944,8.944,0,0,0,1.956-.457h-.037c.033-.014.035-.009.035-.009v.012a15.742,15.742,0,0,0,3.56-1.422,11.927,11.927,0,0,0,2.13-1.282h0c.027.029.1.014.23-.085l.068-.082h0l-.068.079a.613.613,0,0,0,.232-.048,3.622,3.622,0,0,1-.519.386l.015-.012c-.183.1-.433.3-.61.368-.4.135-.817.524-1.259.728l-.368.18c-.249.082-.557.3-.826.377l-.344.141a6.221,6.221,0,0,1-1.364.52l-.067.029-.054.014c-1.4.341-2.418.711-3.5.963a17.7,17.7,0,0,0,5.877-1.721l.4-.2a3.6,3.6,0,0,0,1.047-.554l.56-.351c.187-.093.41-.269.592-.373a1.255,1.255,0,0,1,.169-.119,2.924,2.924,0,0,0,.584-.422l.183-.139c.079-.051.184-.1.244-.153l.259-.254a.772.772,0,0,0,.247-.189l.02-.012h0c.035,0,.1-.05.211-.156a.469.469,0,0,1,.115-.128,16.9,16.9,0,0,0,1.516-2.157,6.9,6.9,0,0,0,.463-.815,2.264,2.264,0,0,0,.317-.544c.057-.078.114-.152.175-.222a14.12,14.12,0,0,0,.878-2.758,3.725,3.725,0,0,0,.289-1.211,10.567,10.567,0,0,0,.246-1.841Zm-3.3-12.937-.01.007s.006,0,0-.024Zm-21.463-6c-.005-.011-.03-.018.025-.048.017-.015.058-.023.074-.036-.05.04-.1.071-.1.085Zm2.134,33.336c0,.011.009.035-.052.016-.022,0-.056-.024-.078-.027C-140.543,270.926-140.484,270.94-140.476,270.93Zm21.565-17.5h-.008v-.038Zm-.107,2.327a4.789,4.789,0,0,0,0-1.077,3.957,3.957,0,0,1,0,1.076Zm.029-7.023c-.018-.017-.055-.112-.076-.125l-.033-.141Zm-.141,2.139h.008c0,.021-.011.082-.027.046a.26.26,0,0,0,.016-.047Zm-.333,3.508h0l0,.019Zm-.388-1.324a.774.774,0,0,1,.018.166c-.01.148-.036-.015-.06-.09.017,0,.035,0,.039-.077Zm-.231,2.611h.012l-.008.037c-.008.016-.007-.038-.007-.038Zm-3.537,9.118.086-.156a6.592,6.592,0,0,1,.582-1.216,6.012,6.012,0,0,1-.582,1.216.492.492,0,0,0-.011.067Zm-21.759-.256c-.018-.01-.045-.04-.062-.047h0l-.011-.013-.039-.039h0a.246.246,0,0,1,.039.04l.014.01.032.02a.39.39,0,0,0,.03.028Zm-2.975-.882-.022-.028c.031.021.045.01.036-.028l-.009-.015.013.014c-.158-.3-.293-.7-.158-.665.158.228.329.56.524.788.09.129.189.277.29.423.154.376.183.449.1.563-.094-.166-.234-.329-.379-.532a2.535,2.535,0,0,0-.386-.576c.009.037,0,.045-.014.055Zm.47-5.509.015,0v.035Zm-.223,1.015a.1.1,0,0,0-.067-.036.5.5,0,0,1-.085.233c.02-.1.015-.245.085-.233a1.031,1.031,0,0,0,.021-.207c.03.1.008.142.045.243Zm-.543,2.989-.019-.034a1.635,1.635,0,0,0,.177.258l-.012.007Zm-.27-1.6-.067-.115-.031-.09Zm-.529-2.2c-.015,0-.039-.03-.067-.081l-.008-.039c.027.055.059.125.078.12Zm-1.54-1.408a.319.319,0,0,1-.025-.067h0a.226.226,0,0,0,.025.067Zm.442,1.624c-.031.009-.015.114.023.253a.8.8,0,0,1-.088-.269c.007-.059.042-.014.067.016Zm.811-.946a1.043,1.043,0,0,1-.112-.345,2.447,2.447,0,0,0,.115.345Zm.124.906c-.012-.115-.024-.208.016-.218-.029.007-.025.1-.014.217Zm-1.605-5.326v.035h-.008v-.033Zm-.1.69v.016l0,.019-.03.249,0,.073V254.2l0-.036a1.5,1.5,0,0,1,.03-.249Zm-.284,2.7a.048.048,0,0,0,.043-.02l.014.145a.565.565,0,0,0-.057-.125c-.044-.006-.093-.082-.14-.16a.455.455,0,0,1,.142.16Zm2.2,4.616.089.219a.877.877,0,0,0,.1.235l0-.04a2.461,2.461,0,0,0,.1.238c.127.269.362.659.206.606-.044-.019-.061,0-.059.035l-.135-.269h0c0-.127-.177-.354-.261-.553a2.189,2.189,0,0,0-.156-.5c.058.062.1.065.127.027Zm4.323-19.022.006-.008h0Zm11.489-3.544,0,.022c0,.019-.091,0-.093.016,0-.015.1-.015.1-.038Zm-1.123-.153c-.037,0,0,0-.018,0h-.091l.037,0a1.673,1.673,0,0,1,.308-.014,2.221,2.221,0,0,0-.234.022Zm.238.167h0a.244.244,0,0,1-.054,0h-.016l-.039.009h-.039a.609.609,0,0,0,.078-.011v0h.016Zm12.1,21.748a.228.228,0,0,1,.051-.091l.01,0c-.016.03-.063.143-.058.086Zm.039.118-.014.026,0-.032-.015.018v-.011s.013-.008.021-.019l-.006.012Zm1.742-4.966-.019.141a.2.2,0,0,0-.015-.091c.016-.053.026-.034.036-.051Zm-.331-8.536.009.021-.009-.017v0l-.022-.047a.39.39,0,0,1-.013-.057.477.477,0,0,0,.037.1Zm-.076-1.665.008.015-.008-.015h0l-.011-.017Zm-.235-.209-.007,0-.011-.018c.017.014.021.013.021.013Zm-5.092-4.5a2.66,2.66,0,0,0-.324-.164,1.032,1.032,0,0,1,.326.164Zm-1.018-.481a.232.232,0,0,1,.078.017l.032.02a.491.491,0,0,0-.108-.037Zm.109-.071c.018-.028-.053-.091-.142-.165.091.074.166.13.144.165Zm-1.933-1.072.087.042-.216-.075Zm-1.718-1.038.27.06.036.011a1.6,1.6,0,0,0-.308-.058Zm-3.22-1.781c-.016,0-.026.009-.055.014V236.2Zm-2.882.1h.041l-.163.012Zm-11.6,8.383v.067h0a.121.121,0,0,1,0-.068Zm-.024.1v.005l-.067.031c.027-.016.048-.024.068-.036Zm-3.193,10.427c-.006.023-.014.047-.032.027v-.038c.018.04.026.029.034.011Zm.4,3.157v.005h0Zm1.773,3.468-.134-.337c.018.027.037.054.056.08a1.576,1.576,0,0,0,.126.324c-.016-.023-.03-.046-.046-.068Zm1.155,2.214a5.187,5.187,0,0,1-.694-1.335c-.018-.055-.041-.112-.063-.169a1.472,1.472,0,0,1,.128.242,2.574,2.574,0,0,0,.265.461.864.864,0,0,0,.082.078,10.222,10.222,0,0,0,1.143,1.438l-.032.04c-.13.1-.488-.342-.828-.755Zm1.009-3.272c.092,0,.114-.127.073-.349h0l.079.392c.062.241-.068.054-.15-.043Zm.2,3.044c.019.01-.024-.076.028-.02s.012.04.036.091Zm1.138.012.018-.014c.015-.012.067.061.078.054-.015.01-.079-.054-.093-.042Zm.5.752c.05.027.144.134.185.15.024.029,0,0,.01.016l.063.067-.029-.023a1.831,1.831,0,0,1-.229-.211Zm.247,3.31-.027-.03.121.11Zm.677-.29s-.006-.014,0-.019c-.115-.127-.182-.235-.292-.359l-.035-.022s.019.009,0,0l.031.027c.269.216.308.3.292.359a.851.851,0,0,0,.063.072Zm1.215-2.036.134.052c-.026,0,.006.042.012.063a1.35,1.35,0,0,1-.146-.116Zm.881,1.985.005-.007.012.016c-.015-.012-.017-.01-.017-.01Zm1.81.14a.586.586,0,0,0,.154.042.365.365,0,0,1-.154-.043Zm.885.471.016.006h0l-.015-.007a.289.289,0,0,1-.031,0,.584.584,0,0,1-.372-.056.943.943,0,0,1-.228-.093c-.01-.005-.015,0-.025-.008l-.11-.052.134.06c.078.034.154.068.228.093.129.032.236.028.372.056h.017s0-.007,0-.007c-.051-.058-.089-.1-.142-.159l-.021-.015.014.006c-.007-.011-.029-.027-.039-.039a3.711,3.711,0,0,1-.458-.342l0,.008-.377-.235.337.2.045.025a1.536,1.536,0,0,1,.458.341c.027.018.043.037.072.054l-.033-.015.008.009c.117.073.229.145.142.159Zm.437.075-.189-.081a2.255,2.255,0,0,0,.225.087Zm.974,1.267v-.006h0Zm.929-.44c.021-.009-.045-.03-.042-.042a.342.342,0,0,0,.093.057Zm1.283.3v-.007l.034.014Zm.842.119a2.788,2.788,0,0,0-.279-.124l.328.018c.065.032.113.071-.048.1Zm1.339-1.061a.416.416,0,0,0,.128.036.108.108,0,0,0,.048.018v0a.149.149,0,0,1-.048-.022l-.16-.033c.031,0,.033-.008.033-.008Zm.171.258h.017a.467.467,0,0,1-.117.036.512.512,0,0,0,.1-.041Zm2.752,1.431-.009.009a.129.129,0,0,1-.055.051l.055-.051a.076.076,0,0,0,.006-.03c0,.023.06.034.1.049a.858.858,0,0,0-.1-.034Zm1.441-1.682c-.067.021-.152.058-.161.025-.031.008,0-.013-.052,0l.007-.008.038-.014.007.024.1-.012.061-.012.035-.011v0Zm3.334-1.528c-.225.107-.424.188-.5.147-.11-.033.118-.162.308-.285.081-.055.186-.135.123-.142-.134.027-.314.165-.413.154.167-.13.385-.2.561-.345-.043.01-.068.014-.082.006l-.021.008.014-.01h.008c.038-.012.072-.021.081-.006a.341.341,0,0,1,.109-.067c.232-.088.471-.31.713-.414a3.508,3.508,0,0,0,.875-.686l.014-.009.024-.022-.013.01c.2-.283-.067-.053-.232.072l-.074.059-.043.025c-.134.035-.369.253-.505.283a15.185,15.185,0,0,0,1.66-1.453l.111-.108-.01.021c-.035.067.024.022.067-.037a.818.818,0,0,0,.067-.088l-.009-.006a.511.511,0,0,0,.173-.257.756.756,0,0,1,.13-.294c.135-.067.328-.258.416-.239-.078.125-.111.194-.1.243a6.232,6.232,0,0,0-.515.864,4.764,4.764,0,0,1-.453.771q-.2.231-.383.458l-.1.071a18.766,18.766,0,0,1-2,1.267Zm.737-.134.072-.044a.277.277,0,0,0,.068-.03.294.294,0,0,1,.086-.04.337.337,0,0,0-.086.04,1.083,1.083,0,0,1-.143.065Z" fill="#fff" fill-rule="evenodd"/>
          </g>
        </g>
        <path id="Path_237" data-name="Path 237" d="M-147.624,242.667c-.061.177-.491.649-.567.879C-147.507,242.757-147.478,242.782-147.624,242.667Z" fill="#fff" fill-rule="evenodd"/>
        <path id="Path_238" data-name="Path 238" d="M-151.942,251.782c.057-.2.1-.517.169-.692.189-.381.208-.948.376-1.4.036-.1.084-.247.135-.387.118-.234.181-.606.318-.852l.144-.342a6.2,6.2,0,0,1,.6-1.332l.027-.067.028-.048c.437-.718.774-1.351,1.1-1.941l.276-.412c.086-.145.154-.277.129-.295,0-.005,0-.005-.005-.007.1-.168.194-.336.295-.5a17.439,17.439,0,0,0-2.712,4.758c-.012-.06-.072.053-.117.189-.106.337-.239.673-.323,1a4.346,4.346,0,0,0-.276.982c-.051.22-.1.422-.147.643-.067.2-.1.479-.155.683a1.366,1.366,0,0,1-.036.2,2.908,2.908,0,0,0-.115.711l-.03.228c-.02.093-.057.2-.067.281,0,.286-.006.551-.008.837a.181.181,0,0,0,.012.056c.012.02.021.02.033-.037a.854.854,0,0,0,.055-.228h0c.038-.134.032-.336.059-.506a1.2,1.2,0,0,1,.009-.17,1.542,1.542,0,0,0,.091-.484,1.578,1.578,0,0,1-.051.168l-.022.072v-.019c.007-.015.014-.036.021-.053l.051-.168c.081-.217.059-.636.145-.891Z" fill="#fff" fill-rule="evenodd"/>
        <path id="Path_239" data-name="Path 239" d="M-121.546,242.443a4.439,4.439,0,0,0-1.076-1.09C-122.27,241.636-121.892,242.2-121.546,242.443Z" fill="#fff" fill-rule="evenodd"/>
        <path id="Path_240" data-name="Path 240" d="M-119.666,245.127l.359.68a3.335,3.335,0,0,0,.177.292c.1.115.063-.029-.014-.183a6.4,6.4,0,0,0-.74-1.3l-.116-.178c-.1-.141-.2-.279-.238-.258-.05-.017.042.127.111.235C-119.968,244.662-119.815,244.943-119.666,245.127Z" fill="#fff" fill-rule="evenodd"/>
        <path id="Path_241" data-name="Path 241" d="M-146.235,241.3a.337.337,0,0,0-.159.106l-.177.2.172-.117C-146.295,241.407-146.214,241.327-146.235,241.3Z" fill="#fff" fill-rule="evenodd"/>
        <path id="Path_242" data-name="Path 242" d="M-146.968,242.04l.039-.1-.165.129c.011.012-.046.09-.009.072A1.356,1.356,0,0,0-146.968,242.04Z" fill="#fff" fill-rule="evenodd"/>
        <path id="Path_243" data-name="Path 243" d="M-119.175,262.247c-.039.052-.049-.049-.118.156-.014.042-.015.088-.006.093a1.388,1.388,0,0,0,.128-.176C-119.135,262.242-119.124,262.177-119.175,262.247Z" fill="#fff" fill-rule="evenodd"/>
        <path id="Path_244" data-name="Path 244" d="M-117.8,250.852c.053.035,0-.193-.018-.319l-.153-.75c-.063-.134-.1-.127-.094.023l.147.746C-117.873,250.717-117.824,250.86-117.8,250.852Z" fill="#fff" fill-rule="evenodd"/>
        <path id="Path_245" data-name="Path 245" d="M-125.78,239.937l.074.067-.036-.055Z" fill="#fff" fill-rule="evenodd"/>
      </g>
      <g id="Group_189" data-name="Group 189">
        <g id="Group_188" data-name="Group 188">
          <g id="Group_185" data-name="Group 185">
            <path id="Path_246" data-name="Path 246" d="M-131.39,262.76h-7.3a5.88,5.88,0,0,1-5.873-5.874v-6.429a5.88,5.88,0,0,1,5.873-5.873h7.3a5.88,5.88,0,0,1,5.873,5.873v6.429A5.881,5.881,0,0,1-131.39,262.76Zm-7.3-16.871a4.575,4.575,0,0,0-4.568,4.568v6.429a4.575,4.575,0,0,0,4.568,4.568h7.3a4.573,4.573,0,0,0,4.567-4.568v-6.429a4.573,4.573,0,0,0-4.567-4.568Z" fill="#185f51"/>
          </g>
          <g id="Group_186" data-name="Group 186">
            <path id="Path_247" data-name="Path 247" d="M-135.038,258.9a5.229,5.229,0,0,1-5.229-5.228,5.228,5.228,0,0,1,5.228-5.228,5.227,5.227,0,0,1,5.228,5.227h0A5.234,5.234,0,0,1-135.038,258.9Zm0-9.149a3.922,3.922,0,0,0-3.922,3.923,3.922,3.922,0,0,0,3.922,3.922,3.922,3.922,0,0,0,3.922-3.922,3.927,3.927,0,0,0-3.922-3.925Z" fill="#185f51"/>
          </g>
          <g id="Group_187" data-name="Group 187">
            <path id="Path_248" data-name="Path 248" d="M-128.806,248.606a1.084,1.084,0,0,1-1.085,1.085,1.085,1.085,0,0,1-1.085-1.085,1.085,1.085,0,0,1,1.085-1.085h0A1.085,1.085,0,0,1-128.806,248.606Z" fill="#185f51"/>
          </g>
        </g>
      </g>
    </g>
  </g>
</svg>
