<svg xmlns="http://www.w3.org/2000/svg" width="34.602" height="35.256" viewBox="0 0 34.602 35.256">
  <g id="linkedin-icon-white" transform="translate(111.133 -236.05)">
    <g id="Group_190-2" data-name="Group 190-2">
      <g id="Group_184-2" data-name="Group 184-2">
        <path id="Path_230-2" data-name="Path 230-2" d="M-92.138,270.889c.169-.082.808-.111,1.024-.222C-92.158,270.744-92.16,270.7-92.138,270.889Z" fill="#fff" fill-rule="evenodd"/>
        <path id="Path_231-2" data-name="Path 231-2" d="M-110.736,252.607a4.472,4.472,0,0,0-.009,1.531C-110.794,253.688-110.659,253.02-110.736,252.607Z" fill="#fff" fill-rule="evenodd"/>
        <path id="Path_232-2" data-name="Path 232-2" d="M-94.086,270.872a.335.335,0,0,0,.187.037l.269-.016-.2-.039C-93.969,270.839-94.083,270.839-94.086,270.872Z" fill="#fff" fill-rule="evenodd"/>
        <path id="Path_233-2" data-name="Path 233-2" d="M-93.044,270.869l-.1.039.208.025c0-.017.1-.031.057-.044A1.2,1.2,0,0,0-93.044,270.869Z" fill="#fff" fill-rule="evenodd"/>
        <path id="Path_234-2" data-name="Path 234-2" d="M-91.361,236.343l1.829.4.7.211a11.558,11.558,0,0,1,1.466.532l-.033-.03.7.317c.219.067.48.249.7.33.38.217.776.408,1.106.632a2.144,2.144,0,0,0,.454.264l.884.6c.118.052.305.226.4.269.072.047.147.09.224.13a2.54,2.54,0,0,0-.557-.488l-1.047-.716a3.215,3.215,0,0,0-.912-.525l-.687-.367a10.116,10.116,0,0,0-1.189-.52l-.443-.189a2.813,2.813,0,0,0-.752-.258l-.28-.09a1.014,1.014,0,0,0-.241-.072l-.222-.061a11.6,11.6,0,0,0-2.094-.514c-.187-.027-.295-.02-.3.019S-91.546,236.311-91.361,236.343Zm6.576,2.416.017.011a1.186,1.186,0,0,1,.228.151l-.228-.151-.019-.008Z" fill="#fff" fill-rule="evenodd"/>
        <path id="Path_235-2" data-name="Path 235-2" d="M-79,263.871l-.008.012c-.009.014-.014.029-.024.042Z" fill="#fff" fill-rule="evenodd"/>
        <g id="Group_183-2" data-name="Group 183-2">
          <g id="Group_182-2" data-name="Group 182-2">
            <path id="Path_236-2" data-name="Path 236-2" d="M-76.641,256.53v-.03a5.915,5.915,0,0,0,.1-1.393.935.935,0,0,0-.04.112,1.488,1.488,0,0,0-.006-.283l-.014-.063.008-.083c0-.377.009-.754.013-1.152l-.043-.228a19.319,19.319,0,0,0-.584-3.264l-.089-.235c-.269-.908-.564-1.739-.932-2.651l-.129-.189-.1-.247a1.06,1.06,0,0,0-.208-.442,7.249,7.249,0,0,0-.922-1.566,26.4,26.4,0,0,0-1.72-2.085c-.305-.323-.481-.657-.792-.951-.3-.269-.355-.163-.787-.521-.466-.352-.916-.753-1.419-1.115l-.03.04c-.006-.025-.028-.063.03-.04l-.2-.134-.029.039-.6-.42-.226-.092-.072-.033-.044-.04c-.174-.139-.424-.221-.515-.336.115,0,.493.222.527.167a2.845,2.845,0,0,0-1.429-.582c-.135-.078-.331-.178-.317-.208.113-.092-.194-.2-.592-.331-.323-.1-.419-.077-.408,0l-.219-.092a.789.789,0,0,0-.238-.094l.031.026a2.035,2.035,0,0,0-.235-.1c-.278-.1-.722-.21-.573-.282.119-.049-.063-.132-.389-.231a2.153,2.153,0,0,0-.823-.166c.326.1.7.29.583.358-.14-.025-.3-.067-.466-.1a1.582,1.582,0,0,0-.318-.265c-.034-.045-.073-.084-.231-.124a.5.5,0,0,0-.27-.322c.155.01.322.026.487.042a5.213,5.213,0,0,1,1.436.454,3.225,3.225,0,0,0,.948.3l1.324.561a30.908,30.908,0,0,1,3.111,1.685l-.019-.008c.56.347,1.047.858,1.589,1.264a4.523,4.523,0,0,1,.7.635l.255.243a7.4,7.4,0,0,1,.516.538c.521.64,1.018,1.2,1.454,1.806l-.04-.1.022.033.018.063a3.661,3.661,0,0,0,.432.588l.074.1.06.108a8.547,8.547,0,0,0,.62,1.11c.055.09.068.106.118.2.117.265.243.528.355.73.025.059.029.058.04.053.019.016.019-.008.006-.072a6.159,6.159,0,0,0-.882-1.973c-.113-.179-.269-.427-.4-.621a10.785,10.785,0,0,0-2.825-3.283,1.739,1.739,0,0,0-.384-.321,1.812,1.812,0,0,0-.395-.277l-.37-.3-.6-.512a11.617,11.617,0,0,0-2.9-1.779c-.466-.22-.981-.374-1.474-.635-.363-.2-.843-.4-.686-.156.024.053-.29-.039-.487-.1-.373-.106-.8-.259-1.2-.342a.577.577,0,0,1-.159-.038.712.712,0,0,0-.28-.06.536.536,0,0,1-.181-.037,10.824,10.824,0,0,0-1.059-.287,2.606,2.606,0,0,0-.461-.1c-.021-.043-.087-.08-.277-.1a1.855,1.855,0,0,0-.257-.039l-.064.011h-.021l.085-.012c-.043-.039-.129-.061-.344-.063l-.023-.007v.005c-.021-.028-.108-.036-.26-.039a.463.463,0,0,1-.17.01c-.4.03-.8.087-1.2.156a3.656,3.656,0,0,0-.686.02,18.128,18.128,0,0,0-2.849.41v.016l0-.015a7.3,7.3,0,0,0-1.443.342,2.477,2.477,0,0,0-.721.189,2.989,2.989,0,0,0-.556.166c-.254.092-.151.123-.3.2a.807.807,0,0,0-.245.163c-.067.052-.385.194-.3.225.036.029.106.033.269-.006.067.048.256.024.532-.052l.052-.031v0a.207.207,0,0,0-.053.028l.578.1c.025.067.1.105.354.053-.134.085-.269.171-.392.262a3.745,3.745,0,0,0-1.063.654,10.546,10.546,0,0,0-1.475,1.128l.032-.026c-.232.249-.616.475-.779.706v0a4.835,4.835,0,0,0-.388.383l-.035.054-.067.054-.679.664a3.862,3.862,0,0,0-.834.835c-.31.422-.912,1.083-1.252,1.615a8.963,8.963,0,0,0-1.059,1.706l.027-.025c-.012.034-.017.031-.017.031l-.011-.006a16.156,16.156,0,0,0-.942,1.9,6.274,6.274,0,0,0-.47,1.289c-.036.112-.072.224-.1.336a11.412,11.412,0,0,0-.644,2.751,4.2,4.2,0,0,0-.03,1.352.235.235,0,0,1-.009.148,1.425,1.425,0,0,0-.054.446,4.981,4.981,0,0,0,.033,1.39l.014.016h0s-.009,0-.014-.016a2.081,2.081,0,0,0,.042.746h0a5.521,5.521,0,0,0,.078.725.354.354,0,0,1,.02.148,1.27,1.27,0,0,0,.045.471,2.067,2.067,0,0,0,.246.825h0a2.147,2.147,0,0,0,.2.6c.079.261.153.5.226.744a10.046,10.046,0,0,0,.471,1.211l.181.448a2.729,2.729,0,0,0,.349.713l.134.262a1.035,1.035,0,0,0,.12.222l.114.2a11.466,11.466,0,0,0,1.118,1.844c.114.151.194.223.226.2s-.021-.139-.129-.292l-1.009-1.579-.344-.642a11.477,11.477,0,0,1-.661-1.412v.045c-.095-.253-.177-.471-.273-.722-.106-.2-.163-.515-.259-.726-.031-.114-.067-.228-.1-.34.011.02.02.041.032.06h0l.073.134-.028-.139v0a1.455,1.455,0,0,0-.016-.2,1.583,1.583,0,0,0-.078-.458h-.013l.014,0a.773.773,0,0,0-.012-.152,14.154,14.154,0,0,0,.5,1.567c.174.485.429.959.593,1.491.112.4.316.875.374.6.021-.054.178.234.273.416.189.336.382.747.606,1.09a.549.549,0,0,1,.086.141.712.712,0,0,0,.156.239.526.526,0,0,1,.1.154,7.616,7.616,0,0,0,2.035,2.623,3.287,3.287,0,0,1,.356.371,2.908,2.908,0,0,0,.644.666,18.058,18.058,0,0,0,2.315,1.708l0-.008,0-.007-.009.015a7.439,7.439,0,0,0,1.262.779,2.528,2.528,0,0,0,.643.376,2.969,2.969,0,0,0,.512.276c.245.114.194.02.351.073a.787.787,0,0,0,.288.058c.084.01.411.134.374.056-.006-.046-.051-.1-.193-.184-.015-.082-.165-.2-.413-.337l-.059-.014v-.006a.229.229,0,0,0,.058.017c-.109-.153-.231-.325-.336-.479.033-.075-.008-.178-.35-.37-.032-.068-.1-.149-.13-.224.247.115.519.224.758.308.258.087.408.079.427.032.063-.055-.226-.16-.4-.248-.207-.1-.365-.216-.376-.277-.024-.083.273.043.424.076a17.142,17.142,0,0,0,1.77.544,3.043,3.043,0,0,0,.863.193l-.016-.012.018,0v.008a5.96,5.96,0,0,0,1.164.2.456.456,0,0,1-.088-.037l.018,0,.068.033a4.38,4.38,0,0,0,1.119.1l-.037-.012.038,0v.008a7.548,7.548,0,0,0,1.863.067c.518-.078,1.413-.12,2.027-.256a8.944,8.944,0,0,0,1.956-.457h-.037c.033-.014.035-.009.035-.009v.012a15.742,15.742,0,0,0,3.56-1.422,11.927,11.927,0,0,0,2.13-1.282h0c.027.029.1.014.231-.085l.067-.082h0l-.067.079a.612.612,0,0,0,.231-.048,3.567,3.567,0,0,1-.519.386l.015-.012c-.183.1-.433.3-.61.368-.4.135-.817.524-1.258.728l-.368.18c-.249.082-.557.3-.827.377l-.344.141a6.232,6.232,0,0,1-1.363.52l-.068.029-.053.014c-1.4.341-2.419.711-3.5.963a17.692,17.692,0,0,0,5.876-1.721l.4-.2a3.6,3.6,0,0,0,1.046-.554l.56-.351c.187-.093.41-.269.592-.373a1.321,1.321,0,0,1,.169-.119,2.924,2.924,0,0,0,.584-.422l.183-.139c.079-.051.185-.1.245-.153l.258-.254a.751.751,0,0,0,.247-.189l.021-.012h0c.035,0,.1-.05.212-.156a.449.449,0,0,1,.114-.128A17.009,17.009,0,0,0-79,263.89a7.039,7.039,0,0,0,.463-.815,2.26,2.26,0,0,0,.316-.544c.057-.078.115-.152.175-.222a14.123,14.123,0,0,0,.879-2.758,3.749,3.749,0,0,0,.288-1.211,10.665,10.665,0,0,0,.247-1.841Zm-3.3-12.937-.01.007s0,0,0-.024Zm-21.463-6c-.006-.011-.031-.018.025-.048.016-.015.057-.023.073-.036-.05.04-.1.071-.1.085Zm2.133,33.336c0,.011.009.035-.051.016-.023,0-.057-.024-.078-.027C-99.334,270.926-99.275,270.94-99.267,270.93Zm21.566-17.5h-.008v-.038Zm-.108,2.327a4.731,4.731,0,0,0,0-1.077,3.957,3.957,0,0,1,.005,1.076Zm.029-7.023c-.017-.017-.054-.112-.076-.125l-.033-.141Zm-.141,2.139h.008c0,.021-.011.082-.026.046a.372.372,0,0,0,.016-.047Zm-.333,3.508h0l0,.019Zm-.388-1.324a.774.774,0,0,1,.018.166c-.01.148-.036-.015-.059-.09.016,0,.035,0,.039-.077Zm-.231,2.611h.013l-.009.037c-.007.016-.007-.038-.007-.038Zm-3.536,9.118.086-.156a6.524,6.524,0,0,1,.581-1.216,6.009,6.009,0,0,1-.581,1.216.376.376,0,0,0-.012.067Zm-21.759-.256c-.019-.01-.045-.04-.063-.047h0l-.01-.013-.039-.039h0a.239.239,0,0,1,.038.04l.014.01.032.02a.271.271,0,0,0,.031.028Zm-2.976-.882-.022-.028c.031.021.045.01.037-.028l-.01-.015.013.014c-.157-.3-.293-.7-.157-.665a9.2,9.2,0,0,0,.524.788c.089.129.189.277.289.423.154.376.183.449.105.563-.094-.166-.234-.329-.379-.532a2.532,2.532,0,0,0-.385-.576c.008.037,0,.045-.015.055Zm.471-5.509.014,0v.035Zm-.224,1.015a.1.1,0,0,0-.067-.036.492.492,0,0,1-.085.233c.021-.1.015-.245.085-.233a1.031,1.031,0,0,0,.021-.207c.03.1.008.142.046.243Zm-.543,2.989-.018-.034a1.512,1.512,0,0,0,.177.258l-.013.007Zm-.269-1.6-.067-.115-.031-.09Zm-.53-2.2c-.014,0-.039-.03-.067-.081l-.008-.039c.028.055.059.125.078.12Zm-1.54-1.408a.318.318,0,0,1-.025-.067h0a.226.226,0,0,0,.025.067Zm.442,1.624c-.031.009-.014.114.023.253a.8.8,0,0,1-.088-.269c.007-.059.042-.014.068.016Zm.811-.946a1.043,1.043,0,0,1-.112-.345,2.584,2.584,0,0,0,.115.345Zm.124.906c-.012-.115-.024-.208.016-.218-.029.007-.025.1-.013.217Zm-1.6-5.326v.035h-.008v-.033Zm-.1.69v.016l0,.019-.029.249,0,.073V254.2l0-.036a1.4,1.4,0,0,1,.029-.249Zm-.284,2.7a.05.05,0,0,0,.044-.02l.014.145a.618.618,0,0,0-.058-.125c-.044-.006-.092-.082-.14-.16a.455.455,0,0,1,.142.16Zm2.2,4.616.089.219a.91.91,0,0,0,.1.235l0-.04a2.463,2.463,0,0,0,.1.238c.127.269.362.659.207.606-.045-.019-.062,0-.06.035l-.134-.269h0c0-.127-.177-.354-.261-.553a2.19,2.19,0,0,0-.156-.5c.058.062.1.065.127.027Zm4.324-19.022,0-.008h0Zm11.488-3.544,0,.022c0,.019-.091,0-.093.016,0-.015.1-.015.1-.038Zm-1.123-.153c-.036,0,0,0-.018,0h-.09l.037,0a1.669,1.669,0,0,1,.308-.014,2.17,2.17,0,0,0-.234.022Zm.239.167h0a.253.253,0,0,1-.055,0h-.016l-.038.009h-.04a.585.585,0,0,0,.078-.011v0h.016Zm12.1,21.748a.219.219,0,0,1,.052-.091l.009,0c-.015.03-.063.143-.058.086Zm.039.118-.014.026,0-.032-.016.018v-.011s.013-.008.021-.019l-.006.012Zm1.742-4.966-.019.141a.19.19,0,0,0-.015-.091c.016-.053.027-.034.037-.051Zm-.331-8.536.009.021-.008-.017v0l-.023-.047c0-.019-.01-.038-.013-.057a.433.433,0,0,0,.038.1Zm-.075-1.665.008.015-.008-.015h0l-.012-.017Zm-.236-.209-.006,0-.012-.018c.017.014.021.013.021.013Zm-5.092-4.5a2.589,2.589,0,0,0-.324-.164,1.021,1.021,0,0,1,.326.164Zm-1.018-.481a.232.232,0,0,1,.078.017l.033.02a.518.518,0,0,0-.109-.037Zm.109-.071c.018-.028-.053-.091-.142-.165.091.074.166.13.144.165Zm-1.932-1.072.086.042-.216-.075Zm-1.718-1.038.269.06.036.011a1.6,1.6,0,0,0-.307-.058Zm-3.22-1.781c-.016,0-.027.009-.055.014V236.2Zm-2.883.1h.041l-.163.012Zm-11.6,8.383v.067h0a.131.131,0,0,1,0-.068Zm-.024.1v.005l-.067.031c.027-.016.048-.024.069-.036ZM-110.6,255.2c-.007.023-.014.047-.033.027v-.038c.018.04.027.029.034.011Zm.4,3.157v.005h0Zm1.773,3.468-.134-.337c.019.027.037.054.056.08a1.576,1.576,0,0,0,.126.324c-.015-.023-.03-.046-.046-.068Zm1.155,2.214a5.25,5.25,0,0,1-.694-1.335c-.017-.055-.041-.112-.063-.169a1.471,1.471,0,0,1,.128.242,2.575,2.575,0,0,0,.265.461.865.865,0,0,0,.082.078,10.222,10.222,0,0,0,1.143,1.438l-.032.04c-.13.1-.488-.342-.827-.755Zm1.009-3.272c.093,0,.115-.127.074-.349h0l.078.392c.062.241-.068.054-.15-.043Zm.2,3.044c.019.01-.023-.076.028-.02s.012.04.037.091Zm1.138.012.018-.014c.015-.012.068.061.078.054-.015.01-.079-.054-.093-.042Zm.5.752c.05.027.144.134.185.15.024.029,0,0,.011.016l.063.067-.03-.023a1.83,1.83,0,0,1-.229-.211Zm.247,3.31-.027-.03.122.11Zm.677-.29s-.006-.014,0-.019c-.115-.127-.182-.235-.292-.359l-.035-.022s.019.009,0,0l.031.027c.269.216.308.3.292.359q.03.037.063.072Zm1.215-2.036.134.052c-.026,0,.006.042.012.063a1.248,1.248,0,0,1-.145-.116Zm.881,1.985.005-.007.012.016c-.015-.012-.016-.01-.016-.01Zm1.81.14a.6.6,0,0,0,.154.042.369.369,0,0,1-.154-.043Zm.885.471c.016.007.017.006.017.006h0l-.016-.007a.289.289,0,0,1-.031,0,.585.585,0,0,1-.372-.056.943.943,0,0,1-.228-.093c-.009-.005-.015,0-.025-.008l-.11-.052.135.06c.077.034.154.068.228.093.128.032.235.028.372.056h.016s0-.007,0-.007c-.051-.058-.089-.1-.142-.159l-.021-.015.014.006c-.007-.011-.029-.027-.038-.039a3.566,3.566,0,0,1-.458-.342l0,.008-.376-.235.336.2.046.025a1.549,1.549,0,0,1,.458.341c.026.018.043.037.071.054l-.033-.015.008.009c.117.073.229.145.142.159Zm.438.075-.189-.081a2.143,2.143,0,0,0,.224.087Zm.974,1.267v-.006h0Zm.929-.44c.021-.009-.045-.03-.043-.042a.358.358,0,0,0,.093.057Zm1.282.3v-.007l.034.014Zm.843.119a2.912,2.912,0,0,0-.28-.124l.328.018c.065.032.113.071-.048.1Zm1.338-1.061a.414.414,0,0,0,.129.036.1.1,0,0,0,.048.018v0a.132.132,0,0,1-.048-.022l-.16-.033c.031,0,.032-.008.032-.008Zm.171.258h.018a.494.494,0,0,1-.117.036.529.529,0,0,0,.1-.041Zm2.752,1.431-.009.009a.129.129,0,0,1-.055.051l.055-.051a.052.052,0,0,0,.006-.03c0,.023.06.034.1.049a.86.86,0,0,0-.1-.034Zm1.442-1.682c-.068.021-.153.058-.162.025-.031.008,0-.013-.052,0l.007-.008.038-.014.007.024.1-.012.061-.012.036-.011v0Zm3.333-1.528c-.224.107-.424.188-.5.147-.111-.033.117-.162.307-.285.081-.055.186-.135.124-.142-.135.027-.314.165-.413.154.166-.13.384-.2.56-.345-.042.01-.067.014-.081.006l-.022.008.014-.01h.008c.039-.012.072-.021.082-.006a.321.321,0,0,1,.109-.067c.231-.088.471-.31.713-.414a3.5,3.5,0,0,0,.874-.686l.014-.009.025-.022-.013.01c.2-.283-.068-.053-.233.072l-.073.059-.043.025c-.135.035-.37.253-.506.283a15.289,15.289,0,0,0,1.661-1.453l.111-.108-.011.021c-.034.067.025.022.067-.037a.706.706,0,0,0,.067-.088l-.009-.006a.513.513,0,0,0,.174-.257.739.739,0,0,1,.129-.294c.135-.067.329-.258.416-.239-.077.125-.111.194-.1.243a6.232,6.232,0,0,0-.515.864,4.693,4.693,0,0,1-.453.771c-.135.154-.263.307-.382.458-.034.023-.068.048-.1.071a18.779,18.779,0,0,1-2,1.267Zm.737-.134.073-.044a.288.288,0,0,0,.067-.03.32.32,0,0,1,.086-.04.354.354,0,0,0-.086.04,1.083,1.083,0,0,1-.143.065Z" fill="#fff" fill-rule="evenodd"/>
          </g>
        </g>
        <path id="Path_237-2" data-name="Path 237-2" d="M-106.415,242.667c-.061.177-.491.649-.566.879C-106.3,242.757-106.269,242.782-106.415,242.667Z" fill="#fff" fill-rule="evenodd"/>
        <path id="Path_238-2" data-name="Path 238-2" d="M-110.733,251.782c.057-.2.1-.517.17-.692.189-.381.207-.948.376-1.4.035-.1.084-.247.134-.387.118-.234.181-.606.318-.852l.144-.342a6.244,6.244,0,0,1,.6-1.332l.028-.067.027-.048c.437-.718.774-1.351,1.1-1.941l.277-.412c.085-.145.154-.277.128-.295,0-.005,0-.005-.005-.007.1-.168.194-.336.295-.5a17.436,17.436,0,0,0-2.711,4.758c-.013-.06-.073.053-.118.189-.106.337-.239.673-.322,1a4.348,4.348,0,0,0-.277.982l-.146.643c-.068.2-.1.479-.156.683a1.145,1.145,0,0,1-.036.2,2.957,2.957,0,0,0-.115.711l-.03.228c-.02.093-.056.2-.067.281,0,.286,0,.551-.008.837a.267.267,0,0,0,.012.056c.013.02.021.02.034-.037a.892.892,0,0,0,.054-.228h0c.038-.134.032-.336.059-.506a1.071,1.071,0,0,1,.01-.17,1.57,1.57,0,0,0,.09-.484,1.579,1.579,0,0,1-.051.168l-.022.072v-.019c.007-.015.014-.036.021-.053l.051-.168c.082-.217.059-.636.145-.891Z" fill="#fff" fill-rule="evenodd"/>
        <path id="Path_239-2" data-name="Path 239-2" d="M-80.337,242.443a4.439,4.439,0,0,0-1.076-1.09C-81.061,241.636-80.683,242.2-80.337,242.443Z" fill="#fff" fill-rule="evenodd"/>
        <path id="Path_240-2" data-name="Path 240-2" d="M-78.457,245.127l.36.68a3.1,3.1,0,0,0,.176.292c.1.115.064-.029-.014-.183a6.353,6.353,0,0,0-.74-1.3l-.116-.178c-.1-.141-.2-.279-.237-.258-.051-.017.041.127.11.235C-78.759,244.662-78.605,244.943-78.457,245.127Z" fill="#fff" fill-rule="evenodd"/>
        <path id="Path_241-2" data-name="Path 241-2" d="M-105.025,241.3a.335.335,0,0,0-.16.106l-.177.2.173-.117C-105.086,241.407-105,241.327-105.025,241.3Z" fill="#fff" fill-rule="evenodd"/>
        <path id="Path_242-2" data-name="Path 242-2" d="M-105.759,242.04l.04-.1-.166.129c.011.012-.046.09-.009.072A1.356,1.356,0,0,0-105.759,242.04Z" fill="#fff" fill-rule="evenodd"/>
        <path id="Path_243-2" data-name="Path 243-2" d="M-77.966,262.247c-.039.052-.049-.049-.118.156-.014.042-.015.088-.006.093a1.389,1.389,0,0,0,.128-.176C-77.925,262.242-77.915,262.177-77.966,262.247Z" fill="#fff" fill-rule="evenodd"/>
        <path id="Path_244-2" data-name="Path 244-2" d="M-76.588,250.852c.053.035,0-.193-.018-.319l-.153-.75c-.062-.134-.1-.127-.094.023l.147.746C-76.664,250.717-76.615,250.86-76.588,250.852Z" fill="#fff" fill-rule="evenodd"/>
        <path id="Path_245-2" data-name="Path 245-2" d="M-84.571,239.937l.074.067-.035-.055Z" fill="#fff" fill-rule="evenodd"/>
      </g>
      <g id="nE8Uvz">
        <g id="Group_3472" data-name="Group 3472">
          <path id="Path_9145" data-name="Path 9145" d="M-84.248,261.03h-4.2v-1.1c0-1.76.006-3.52-.006-5.279a6.483,6.483,0,0,0-.119-1.187,1.8,1.8,0,0,0-1.778-1.713,2.128,2.128,0,0,0-2.252,1.529,4.407,4.407,0,0,0-.138,1.183c-.012,2.158-.006,4.315-.006,6.533h-4.041V248.82h4.026v1.27a11.5,11.5,0,0,1,2.608-1.443c2.765-.7,5.162.727,5.541,3.569C-84.228,255.1-84.35,258.041-84.248,261.03Z" fill="#185f51"/>
          <path id="Path_9146" data-name="Path 9146" d="M-99.114,261.011h-3.978V248.8h3.978Z" fill="#185f51"/>
          <path id="Path_9147" data-name="Path 9147" d="M-98.811,245a2.153,2.153,0,0,1-2.17,2.135c-.044,0-.089,0-.133-.006a2.17,2.17,0,0,1-2.293-2.041c0-.035,0-.069,0-.1a2.19,2.19,0,0,1,2.242-2.136l.075,0a2.146,2.146,0,0,1,2.278,2.006C-98.812,244.907-98.811,244.955-98.811,245Z" fill="#185f51"/>
        </g>
      </g>
    </g>
  </g>
</svg>
